<?xml version="1.0" standalone="no"?>
<!DOCTYPE svg PUBLIC "-//W3C//DTD SVG 20010904//EN"
 "http://www.w3.org/TR/2001/REC-SVG-20010904/DTD/svg10.dtd">
<svg version="1.0" xmlns="http://www.w3.org/2000/svg"
 width="96.000000pt" height="96.000000pt" viewBox="0 0 96.000000 96.000000"
 preserveAspectRatio="xMidYMid meet">

<g transform="translate(0.000000,96.000000) scale(0.100000,-0.100000)"
fill="#FFFFFF" stroke="none">
<path d="M361 944 c-205 -55 -361 -252 -361 -457 l0 -48 37 30 c21 17 82 51
136 76 53 25 97 46 97 48 0 1 -7 27 -15 57 -22 83 -19 150 8 191 27 41 85 75
142 83 84 13 124 -22 162 -141 19 -62 30 -83 43 -83 26 0 48 30 70 95 11 32
27 66 36 76 15 16 13 19 -25 38 -96 50 -225 63 -330 35z"/>
<path d="M394 860 c-54 -22 -72 -105 -33 -154 25 -32 58 -33 119 -3 43 21 45
24 44 65 -2 79 -61 121 -130 92z m96 -37 c0 -13 -3 -13 -15 -3 -8 7 -12 16 -9
21 8 13 24 1 24 -18z m24 -49 c7 -18 0 -34 -15 -34 -5 0 -9 11 -9 25 0 28 15
34 24 9z"/>
<path d="M817 727 c-17 -39 -51 -88 -92 -132 -35 -38 -64 -75 -65 -81 0 -6 26
-37 59 -70 59 -60 85 -111 115 -229 l13 -50 32 50 c97 153 106 323 25 484 -50
100 -55 102 -87 28z"/>
<path d="M245 416 c-33 -18 -84 -50 -114 -70 -29 -20 -64 -36 -77 -36 l-24 0
26 -52 c60 -118 196 -220 331 -249 112 -23 249 3 348 66 l40 26 -32 -6 c-43
-8 -83 29 -83 76 0 51 -22 109 -48 130 -41 32 -49 25 -56 -53 -4 -40 -15 -86
-24 -102 -34 -58 -113 -96 -200 -96 -57 0 -102 41 -102 93 0 44 24 65 85 74
60 8 89 34 80 71 -5 22 -82 162 -88 162 -1 0 -29 -15 -62 -34z"/>
</g>
</svg>
